<svg xmlns="http://www.w3.org/2000/svg" id="rain" x="0px" y="0px" viewBox="0 0 256 256" enable-background="new 0 0 256 256">
	<rect opacity="0" fill="#fff" width="256" height="256"/>
	<g class="groupDrops amountHigh">
		<title>Previs찾o do Tempo Florian처polis - SC | ClicTempo</title>
		<g class="groupDrop first">
			<path fill-rule="evenodd" class="whiteBase" clip-rule="evenodd" fill="#FFFFFF" d="M63.1,191.7c3.8,0,17,20.9,17,28c0,9.4-7.6,17-17,17&#10;&#9;&#9;&#9;&#9;c-9.4,0-17-7.6-17-17C46.1,212.6,59.2,191.7,63.1,191.7z"/>
			<path fill-rule="evenodd" class="whiteShadow" clip-rule="evenodd" fill="#E6F4FD" d="M63.1,231.2c7.8,0,14.4-5,17-11.9c0,0.1,0,0.2,0,0.4&#10;&#9;&#9;&#9;&#9;c0,9.4-7.6,17-17,17c-9.4,0-17-7.6-17-17c0-0.1,0-0.2,0-0.4C48.6,226.2,55.3,231.2,63.1,231.2z"/>
		</g>
		<g class="groupDrop third">
			<path fill-rule="evenodd" class="whiteBase" clip-rule="evenodd" fill="#FFFFFF" d="M112.9,178.4c3,0,13.5,16.4,13.5,22c0,7.4-6,13.4-13.5,13.4&#10;&#9;&#9;&#9;&#9;c-7.5,0-13.5-6-13.5-13.4C99.4,194.8,109.9,178.4,112.9,178.4z"/>
			<path fill-rule="evenodd" class="whiteShadow" clip-rule="evenodd" fill="#E6F4FD" d="M112.9,209.6c6.2,0,11.5-3.9,13.5-9.4c0,0.1,0,0.2,0,0.3&#10;&#9;&#9;&#9;&#9;c0,7.4-6,13.4-13.5,13.4c-7.5,0-13.5-6-13.5-13.4c0-0.1,0-0.2,0-0.3C101.5,205.7,106.7,209.6,112.9,209.6z"/>
		</g>
		<g class="groupDrop second">
			<path fill-rule="evenodd" class="whiteBase" clip-rule="evenodd" fill="#FFFFFF" d="M161.8,199.7c4.4,0,19.5,23.9,19.5,31.9&#10;&#9;&#9;&#9;&#9;c0,10.7-8.7,19.4-19.5,19.4c-10.8,0-19.5-8.7-19.5-19.4C142.3,223.6,157.4,199.7,161.8,199.7z"/>
			<path fill-rule="evenodd" class="whiteShadow" clip-rule="evenodd" fill="#E6F4FD" d="M161.8,244.8c9,0,16.6-5.7,19.5-13.6c0,0.1,0,0.3,0,0.4&#10;&#9;&#9;&#9;&#9;c0,10.7-8.7,19.4-19.5,19.4c-10.8,0-19.5-8.7-19.5-19.4c0-0.1,0-0.3,0-0.4C145.3,239.1,152.9,244.8,161.8,244.8z"/>
		</g>
		<g class="groupDrop fourth">
			<path fill-rule="evenodd" class="whiteBase" clip-rule="evenodd" fill="#FFFFFF" d="M203.8,179.6c2.8,0,12.4,14.9,12.4,19.9&#10;&#9;&#9;&#9;&#9;c0,6.7-5.6,12.1-12.4,12.1c-6.9,0-12.4-5.4-12.4-12.1C191.3,194.5,201,179.6,203.8,179.6z"/>
			<path fill-rule="evenodd" class="whiteShadow" clip-rule="evenodd" fill="#E6F4FD" d="M203.8,207.7c5.7,0,10.6-3.5,12.4-8.5c0,0.1,0,0.2,0,0.3&#10;&#9;&#9;&#9;&#9;c0,6.7-5.6,12.1-12.4,12.1c-6.9,0-12.4-5.4-12.4-12.1c0-0.1,0-0.2,0-0.3C193.2,204.1,198.1,207.7,203.8,207.7z"/>
		</g>
	</g>
	<g class="groupCloud">
	<title>Previs찾o do Tempo Florian처polis - SC | ClicTempo</title>
	<path fill-rule="evenodd" class="whiteBase" clip-rule="evenodd" fill="#FFFFFF" d="M211.5,162.9L211.5,162.9L54.5,163v0C24.3,162.3,0,137.5,0,106.9&#10;&#9;&#9;c0-30.9,24.9-56,55.7-56c0.8,0,1.7,0,2.5,0.1c7.7-26.6,32-46,60.9-46c35,0,63.4,28.6,63.4,63.9c0,3-0.3,6-0.7,8.9&#10;&#9;&#9;c7.7-5.6,17.1-8.9,27.4-8.9c25.8,0,46.7,21.1,46.7,47.1C256,141.1,236.3,161.7,211.5,162.9z"/>
	<path fill-rule="evenodd" class="whiteShadow" clip-rule="evenodd" fill="#E6F4FD" d="M106.8,84.7C105,60.4,79.2,41.2,61.1,42.9&#10;&#9;&#9;C60,45.5,59,48.2,58.2,51C80,51.9,98.5,65.6,106.8,84.7z M214,156H82c0,0-17.2,0-21,0c-33,0-56.5-24-56.5-56.9&#10;&#9;&#9;c0-8.3,1.8-16.2,4.9-23.3c-0.7,1-1.3,2.1-1.9,3.1c-0.1,0.2-0.2,0.4-0.3,0.5c-1.2,2.1-2.3,4.4-3.2,6.7c-0.1,0.2-0.2,0.5-0.3,0.7&#10;&#9;&#9;c-0.4,1.2-0.9,2.3-1.2,3.5c0,0,0,0,0,0c-0.4,1.2-0.7,2.3-0.9,3.5c-0.1,0.3-0.1,0.6-0.2,0.8c-0.3,1.2-0.5,2.4-0.7,3.7&#10;&#9;&#9;c0,0,0,0,0,0.1c-0.2,1.2-0.3,2.4-0.4,3.7c0,0.3-0.1,0.6-0.1,0.9c-0.1,1.3-0.1,2.5-0.1,3.8c0,0.9,0,1.9,0.1,2.8&#10;&#9;&#9;c0,0.3,0,0.6,0.1,0.9c0,0.6,0.1,1.2,0.1,1.8c0,0.4,0.1,0.7,0.1,1.1c0.1,0.5,0.1,1.1,0.2,1.6c0.1,0.4,0.1,0.8,0.2,1.1&#10;&#9;&#9;c0.1,0.5,0.2,1,0.3,1.5c0.1,0.4,0.2,0.8,0.3,1.2c0.1,0.5,0.2,1,0.3,1.5c0.1,0.4,0.2,0.8,0.3,1.2c0.1,0.5,0.3,1,0.4,1.4&#10;&#9;&#9;c0.1,0.4,0.2,0.8,0.4,1.2c0.2,0.5,0.3,0.9,0.5,1.4c0.1,0.4,0.3,0.8,0.4,1.1c0.2,0.5,0.3,0.9,0.5,1.4c0.2,0.4,0.3,0.7,0.5,1.1&#10;&#9;&#9;c0.2,0.4,0.4,0.9,0.6,1.3c0.2,0.4,0.3,0.7,0.5,1.1c0.2,0.4,0.4,0.9,0.6,1.3c0.2,0.4,0.4,0.7,0.6,1c0.2,0.4,0.5,0.8,0.7,1.3&#10;&#9;&#9;c0.2,0.3,0.4,0.7,0.6,1c0.3,0.4,0.5,0.8,0.8,1.2c0.2,0.3,0.4,0.7,0.7,1c0.3,0.4,0.5,0.8,0.8,1.2c0.2,0.3,0.5,0.6,0.7,0.9&#10;&#9;&#9;c0.3,0.4,0.6,0.8,0.9,1.2c0.2,0.3,0.5,0.6,0.7,0.9c0.3,0.4,0.6,0.8,1,1.1c0.2,0.3,0.5,0.6,0.8,0.8c0.3,0.4,0.7,0.7,1,1.1&#10;&#9;&#9;c0.3,0.3,0.5,0.5,0.8,0.8c0.4,0.4,0.7,0.7,1.1,1c0.3,0.3,0.5,0.5,0.8,0.8c0.4,0.3,0.8,0.7,1.1,1c0.3,0.2,0.6,0.5,0.8,0.7&#10;&#9;&#9;c0.4,0.3,0.8,0.6,1.2,1c0.3,0.2,0.6,0.4,0.9,0.7c0.4,0.3,0.8,0.6,1.3,0.9c0.3,0.2,0.6,0.4,0.9,0.6c0.4,0.3,0.9,0.6,1.3,0.9&#10;&#9;&#9;c0.3,0.2,0.6,0.4,0.9,0.6c0.5,0.3,0.9,0.6,1.4,0.8c0.3,0.2,0.6,0.3,0.9,0.5c0.5,0.3,1,0.5,1.4,0.8c0.3,0.2,0.6,0.3,0.9,0.5&#10;&#9;&#9;c0.5,0.2,1,0.5,1.5,0.7c0.3,0.1,0.6,0.3,0.9,0.4c0.5,0.2,1.1,0.4,1.6,0.7c0.3,0.1,0.6,0.2,0.9,0.3c0.5,0.2,1.1,0.4,1.7,0.6&#10;&#9;&#9;c0.3,0.1,0.6,0.2,0.9,0.3c0.6,0.2,1.1,0.4,1.7,0.5c0.3,0.1,0.6,0.2,0.8,0.2c0.6,0.2,1.2,0.3,1.8,0.5c0.3,0.1,0.5,0.1,0.8,0.2&#10;&#9;&#9;c0.6,0.1,1.3,0.3,1.9,0.4c0.3,0,0.5,0.1,0.8,0.1c0.7,0.1,1.3,0.2,2,0.3c0.2,0,0.5,0.1,0.7,0.1c0.7,0.1,1.4,0.1,2.2,0.2&#10;&#9;&#9;c0.2,0,0.4,0,0.6,0.1c0.9,0.1,1.8,0.1,2.7,0.1v0h156.9v-0.1c12.8-0.6,24.3-6.4,32.4-15.4C235.2,153,225.1,156,214,156z"/>
	</g>
</svg>