<svg xmlns="http://www.w3.org/2000/svg" id="sun" x="0px" y="0px" viewBox="0 0 256 256" enable-background="new 0 0 256 256">
	<rect opacity="0" fill="#fff" width="256" height="256"/>
	<g class="groupSun">
		<title>Céu claro</title>
		<path fill-rule="evenodd" clip-rule="evenodd" fill="#FFE75A" d="M128,34.2c51.8,0,93.8,42,93.8,93.8s-42,93.8-93.8,93.8&#10;&#9;&#9;&#9;s-93.8-42-93.8-93.8S76.2,34.2,128,34.2z"/>
		<path fill-rule="evenodd" clip-rule="evenodd" fill="#FFFEB5" d="M253.5,125.8L252,125v0l-25.7-16.4l17.8-25.1l0,0l0.9-1.2&#10;&#9;&#9;&#9;c1.7-2.3,0.8-4.6-2.1-5l-1.5-0.3l0,0l-30-5.3l6.6-29.6l0,0l0.3-1.4c0.6-2.8-1.1-4.5-3.8-3.8l-1.5,0.4l0,0l-29.4,6.6l-5-29l0,0&#10;&#9;&#9;&#9;l-0.2-1.5c-0.5-2.8-2.7-3.7-5-2.1l-1.2,0.9l0,0l-24.9,17.6L131,4h0l-0.8-1.5c-1.5-2.4-3.9-2.3-5.4,0.1L123.9,4h0l-16.2,25.4&#10;&#9;&#9;&#9;L83.4,12.1l0,0l-1.3-0.9c-2.3-1.7-4.6-0.7-5,2.1l-0.2,1.5l0,0l-5.3,29.9l-29.4-6.6l0,0l-1.5-0.4c-2.8-0.6-4.5,1.1-3.8,3.8l0.3,1.4&#10;&#9;&#9;&#9;l0,0l6.5,28.9l-28.8,5l0,0L13.3,77c-2.8,0.5-3.7,2.7-2.1,5l0.9,1.2l0,0l17.9,25.2L4,125v0l-1.5,0.8c-2.4,1.5-2.3,3.9,0.1,5.4L4,132&#10;&#9;&#9;&#9;v0l24.6,15.7l-17,24l-0.1,0l-0.9,1.3c-1.7,2.3-0.8,4.6,2.1,5l1.5,0.2l0,0l29.7,5.2L37.2,213l0,0l-0.4,1.5c-0.6,2.8,1.1,4.5,3.8,3.8&#10;&#9;&#9;&#9;l1.4-0.3l0,0l29.2-6.5l5.2,30.1l0,0l0.2,1.5c0.5,2.8,2.7,3.7,5,2.1l1.3-0.9l0,0l24.8-17.5l16.1,25.3h0l0.8,1.5&#10;&#9;&#9;&#9;c1.5,2.4,3.9,2.3,5.4-0.1l0.8-1.4h0l15.9-24.9l24.7,17.5l0,0l1.2,0.9c2.3,1.7,4.6,0.8,5-2.1l0.3-1.5l0,0l5.3-29.8l29.8,6.7l0,0&#10;&#9;&#9;&#9;l1.4,0.3c2.8,0.6,4.5-1.1,3.8-3.8l-0.4-1.5l0,0l-6.6-29.6l30.3-5.2l0,0l1.5-0.2c2.8-0.5,3.7-2.7,2.1-5l-0.9-1.3l0,0L227.1,148&#10;&#9;&#9;&#9;L252,132v0l1.4-0.8C255.8,129.7,255.9,127.3,253.5,125.8z M128,221.8c-51.8,0-93.8-42-93.8-93.8s42-93.8,93.8-93.8&#10;&#9;&#9;&#9;s93.8,42,93.8,93.8S179.8,221.8,128,221.8z"/>
	</g>
	<path fill-rule="evenodd" clip-rule="evenodd" fill="#F0D04F" d="M209.9,175c-25.9,44.8-83.5,60-128.6,34.1&#10;&#9;&#9;c-6.6-3.8-12.6-8.3-17.9-13.3c43.3,13.9,91.9-3.5,115.4-44.2c19.7-34,16.5-74.9-4.7-105.2c0.3,0.2,0.7,0.4,1.1,0.6&#10;&#9;&#9;C220.3,72.9,235.8,130.2,209.9,175z"/>
</svg>