<svg xmlns="http://www.w3.org/2000/svg" id="fog" x="0px" y="0px" viewBox="0 0 256 256" enable-background="new 0 0 256 256">
	<rect opacity="0" fill="#fff" width="256" height="256"/>
	<g class="groupFog">
		<title>Neblina</title>
		<g class="first">
			<path opacity="0.6" fill-rule="evenodd" class="whiteBase" clip-rule="evenodd" fill="#FFFFFF" d="M50.2,180.3h155.7c7.3,0,13.2,5.9,13.2,13.2&#10;&#9;&#9;&#9;&#9;c0,7.3-5.9,13.2-13.2,13.2H50.2c-7.3,0-13.2-5.9-13.2-13.2C37,186.2,42.9,180.3,50.2,180.3z"/>
			<path opacity="0.5" fill-rule="evenodd" class="whiteShadow" clip-rule="evenodd" fill="#E6F4FD" d="M48,201.2h159c5.4,0,10-3.2,12.1-7.9&#10;&#9;&#9;&#9;&#9;c0,0.1,0,0.1,0,0.2c0,7.3-5.9,13.2-13.2,13.2H50.1c-6.6,0-12-4.8-13-11.1C39.5,198.9,43.5,201.2,48,201.2z"/>
		</g>
		<g class="second">
			<path opacity="0.6" fill-rule="evenodd" class="whiteBase" clip-rule="evenodd" fill="#FFFFFF" d="M72.1,221.8h111.7c7.3,0,13.1,5.9,13.1,13.1&#10;&#9;&#9;&#9;&#9;c0,7.3-5.9,13.1-13.1,13.1H72.1c-7.3,0-13.1-5.9-13.1-13.1C59,227.7,64.9,221.8,72.1,221.8z"/>
			<path opacity="0.5" fill-rule="evenodd" class="whiteShadow" clip-rule="evenodd" fill="#E6F4FD" d="M70,242.6h115c5.4,0,10-3.2,12-7.9&#10;&#9;&#9;&#9;&#9;c0,0.1,0,0.1,0,0.2c0,7.3-5.9,13.1-13.1,13.1H72.2c-6.6,0-12-4.8-13-11.1C61.5,240.4,65.5,242.6,70,242.6z"/>
		</g>
	</g>

	<g class="groupCloud">
		<title>Neblina</title>
		<path fill-rule="evenodd" clip-rule="evenodd" fill="#FFFFFF" d="M211.5,165.1L211.5,165.1l-156.9,0.1v0&#10;&#9;&#9;&#9;C24.3,164.6,0,139.7,0,109.2c0-30.9,24.9-56,55.7-56c0.8,0,1.7,0,2.5,0.1c7.7-26.6,32-46,60.9-46c35,0,63.4,28.6,63.4,63.9&#10;&#9;&#9;&#9;c0,3-0.3,6-0.7,8.9c7.7-5.6,17.1-8.9,27.4-8.9c25.8,0,46.7,21.1,46.7,47.1C256,143.4,236.3,164,211.5,165.1z"/>
		<path fill-rule="evenodd" clip-rule="evenodd" fill="#E6F4FD" d="M106.8,87C105,62.6,79.2,43.4,61.1,45.1&#10;&#9;&#9;&#9;c-1.2,2.6-2.1,5.3-2.9,8.1C80,54.2,98.5,67.8,106.8,87z M214,158.2H82c0,0-17.2,0-21,0c-33,0-56.5-24-56.5-56.9&#10;&#9;&#9;&#9;C4.5,93,6.2,85.1,9.4,78c-0.7,1-1.3,2.1-1.9,3.1c-0.1,0.2-0.2,0.4-0.3,0.5c-1.2,2.1-2.3,4.4-3.2,6.7c-0.1,0.2-0.2,0.5-0.3,0.7&#10;&#9;&#9;&#9;c-0.4,1.2-0.9,2.3-1.2,3.5c0,0,0,0,0,0c-0.4,1.2-0.7,2.3-0.9,3.5c-0.1,0.3-0.1,0.6-0.2,0.8c-0.3,1.2-0.5,2.4-0.7,3.7&#10;&#9;&#9;&#9;c0,0,0,0,0,0.1c-0.2,1.2-0.3,2.4-0.4,3.7c0,0.3-0.1,0.6-0.1,0.9c-0.1,1.3-0.1,2.5-0.1,3.8c0,0.9,0,1.9,0.1,2.8&#10;&#9;&#9;&#9;c0,0.3,0,0.6,0.1,0.9c0,0.6,0.1,1.2,0.1,1.8c0,0.4,0.1,0.7,0.1,1.1c0.1,0.5,0.1,1.1,0.2,1.6c0.1,0.4,0.1,0.8,0.2,1.1&#10;&#9;&#9;&#9;c0.1,0.5,0.2,1,0.3,1.5c0.1,0.4,0.2,0.8,0.3,1.2c0.1,0.5,0.2,1,0.3,1.5c0.1,0.4,0.2,0.8,0.3,1.2c0.1,0.5,0.3,1,0.4,1.4&#10;&#9;&#9;&#9;c0.1,0.4,0.2,0.8,0.4,1.2c0.2,0.5,0.3,0.9,0.5,1.4c0.1,0.4,0.3,0.8,0.4,1.1c0.2,0.5,0.3,0.9,0.5,1.4c0.2,0.4,0.3,0.7,0.5,1.1&#10;&#9;&#9;&#9;c0.2,0.4,0.4,0.9,0.6,1.3c0.2,0.4,0.3,0.7,0.5,1.1c0.2,0.4,0.4,0.9,0.6,1.3c0.2,0.4,0.4,0.7,0.6,1c0.2,0.4,0.5,0.8,0.7,1.3&#10;&#9;&#9;&#9;c0.2,0.3,0.4,0.7,0.6,1c0.3,0.4,0.5,0.8,0.8,1.2c0.2,0.3,0.4,0.7,0.7,1c0.3,0.4,0.5,0.8,0.8,1.2c0.2,0.3,0.5,0.6,0.7,0.9&#10;&#9;&#9;&#9;c0.3,0.4,0.6,0.8,0.9,1.2c0.2,0.3,0.5,0.6,0.7,0.9c0.3,0.4,0.6,0.8,1,1.1c0.2,0.3,0.5,0.6,0.8,0.8c0.3,0.4,0.7,0.7,1,1.1&#10;&#9;&#9;&#9;c0.3,0.3,0.5,0.5,0.8,0.8c0.4,0.4,0.7,0.7,1.1,1c0.3,0.3,0.5,0.5,0.8,0.8c0.4,0.3,0.8,0.7,1.1,1c0.3,0.2,0.6,0.5,0.8,0.7&#10;&#9;&#9;&#9;c0.4,0.3,0.8,0.6,1.2,1c0.3,0.2,0.6,0.4,0.9,0.7c0.4,0.3,0.8,0.6,1.3,0.9c0.3,0.2,0.6,0.4,0.9,0.6c0.4,0.3,0.9,0.6,1.3,0.9&#10;&#9;&#9;&#9;c0.3,0.2,0.6,0.4,0.9,0.6c0.5,0.3,0.9,0.6,1.4,0.8c0.3,0.2,0.6,0.3,0.9,0.5c0.5,0.3,1,0.5,1.4,0.8c0.3,0.2,0.6,0.3,0.9,0.5&#10;&#9;&#9;&#9;c0.5,0.2,1,0.5,1.5,0.7c0.3,0.1,0.6,0.3,0.9,0.4c0.5,0.2,1.1,0.4,1.6,0.7c0.3,0.1,0.6,0.2,0.9,0.3c0.5,0.2,1.1,0.4,1.7,0.6&#10;&#9;&#9;&#9;c0.3,0.1,0.6,0.2,0.9,0.3c0.6,0.2,1.1,0.4,1.7,0.5c0.3,0.1,0.6,0.2,0.8,0.2c0.6,0.2,1.2,0.3,1.8,0.5c0.3,0.1,0.5,0.1,0.8,0.2&#10;&#9;&#9;&#9;c0.6,0.1,1.3,0.3,1.9,0.4c0.3,0,0.5,0.1,0.8,0.1c0.7,0.1,1.3,0.2,2,0.3c0.2,0,0.5,0.1,0.7,0.1c0.7,0.1,1.4,0.1,2.2,0.2&#10;&#9;&#9;&#9;c0.2,0,0.4,0,0.6,0.1c0.9,0.1,1.8,0.1,2.7,0.1v0h156.9v-0.1c12.8-0.6,24.3-6.4,32.4-15.4C235.2,155.2,225.1,158.2,214,158.2z"/>
	</g>
</svg>