<svg xmlns="http://www.w3.org/2000/svg" id="moon" x="0px" y="0px" viewBox="0 0 256 256" enable-background="new 0 0 256 256">
	<rect x="0" opacity="0" fill="#fff" width="256" height="256"/>
	<g>
		<title>Céu claro</title>
		<path fill="#FFE75A" d="M160.2,14.9c6.2,12.2,10.4,25.6,12.2,39.9c0.7,5.2,1,10.3,1,15.4c0,60.6-44.9,113.1-106.4,120.9&#10;&#9;&#9;&#9;c-5.2,0.7-10.3,1-15.4,1c-9,0-17.7-1-26.2-2.9c20.3,40.2,62,66.8,108.3,66.8c5.1,0,10.2-0.3,15.4-1&#10;&#9;&#9;&#9;c61.5-7.8,106.4-60.3,106.4-120.9c0-5.1-0.3-10.3-1-15.4C247.9,66.2,208.9,25.7,160.2,14.9"/>
		<path fill-rule="evenodd" clip-rule="evenodd" fill="#F0D04F" d="M239.7,195.2c-33.6,58.2-108.2,78.1-166.7,44.3&#10;&#9;&#9;&#9;c-8.4-4.9-16-10.6-22.8-16.9c59.2,26.7,130,4.9,163-52.3c24-41.6,21.8-91.2-1.5-129.7C256.8,77.9,269.8,143.1,239.7,195.2z"/>
		<path fill-rule="evenodd" clip-rule="evenodd" fill="#E4C548" d="M168,201.6c6.8,0,12.4,5.6,12.4,12.4s-5.6,12.4-12.4,12.4&#10;&#9;&#9;&#9;c-6.8,0-12.4-5.6-12.4-12.4S161.2,201.6,168,201.6z"/>
	</g>
	<g>
		<title>Céu claro</title>
		<path fill-rule="evenodd" clip-rule="evenodd" fill="#FFFEB5" d="M98.6,77.6c5.5,0,10,4.5,10,10c0,5.5-4.5,10-10,10&#10;&#9;&#9;&#9;c-5.5,0-10-4.5-10-10C88.5,82.1,93,77.6,98.6,77.6z"/>
		<path fill-rule="evenodd" clip-rule="evenodd" fill="#FFFEB5" d="M12.6,106.7c6.9,0,12.6,5.6,12.6,12.6c0,6.9-5.6,12.6-12.6,12.6&#10;&#9;&#9;&#9;c-6.9,0-12.6-5.6-12.6-12.6C0,112.3,5.6,106.7,12.6,106.7z"/>
		<path fill-rule="evenodd" clip-rule="evenodd" fill="#FFFEB5" d="M46.1,0c9.4,0,17.1,7.6,17.1,17.1c0,9.4-7.6,17.1-17.1,17.1&#10;&#9;&#9;&#9;S29,26.5,29,17.1C29,7.6,36.6,0,46.1,0z"/>
	</g>
</svg>