<svg xmlns="http://www.w3.org/2000/svg" id="day-fair" x="0px" y="0px" viewBox="0 0 256 256" enable-background="new 0 0 256 256">
	<rect opacity="0" fill="#fff" width="256" height="256"/>
	<g class="groupSun">
		<title>Parcialmente nublado</title>
		<path fill-rule="evenodd" clip-rule="evenodd" fill="#FFFEB5" d="M255,105.7l-0.7,0.4l0,0l-14.3,9.1l9.8,13.9l0,0l0.5,0.7&#10;&#9;&#9;&#9;c0.9,1.3,0.4,2.6-1.2,2.9l-0.8,0.1l0,0l-17.3,3l3.8,16.9l0,0l0.2,0.9c0.4,1.6-0.6,2.6-2.2,2.2l-0.8-0.2l0,0l-17-3.8l-3,17l0,0&#10;&#9;&#9;&#9;l-0.1,0.9c-0.3,1.6-1.5,2.1-2.9,1.2l-0.7-0.5l0,0l-14.1-9.9l-9.1,14.3l0,0l-0.4,0.7c-0.9,1.4-2.2,1.4-3.1,0l-0.5-0.8h0l-9.2-14.5&#10;&#9;&#9;&#9;l-14.1,9.9l0,0l-0.7,0.5c-1.3,0.9-2.6,0.4-2.9-1.2l-0.1-0.8l0,0l-2.9-17.1l-16.6,3.7l0,0l-0.8,0.2c-1.6,0.4-2.6-0.6-2.2-2.2&#10;&#9;&#9;&#9;l0.2-0.9l0,0l3.8-16.8l-17-3l0,0l-0.8-0.1c-1.6-0.3-2.1-1.5-1.2-2.9l0.5-0.7l0,0l9.7-13.7l-14.1-9l0,0l-0.7-0.4&#10;&#9;&#9;&#9;c-1.4-0.9-1.4-2.2,0-3.1l0.8-0.5v0l14.9-9.4l-10.1-14.4l0,0l-0.5-0.7c-0.9-1.3-0.4-2.6,1.2-2.9l0.9-0.1l0,0l16.4-2.8l-3.7-16.5&#10;&#9;&#9;&#9;l0,0l-0.2-0.8c-0.4-1.6,0.6-2.6,2.2-2.2l0.9,0.2l0,0l16.8,3.8l3-17l0,0l0.1-0.8c0.3-1.6,1.5-2.1,2.9-1.2l0.7,0.5l0,0l13.9,9.8&#10;&#9;&#9;&#9;l9.2-14.6h0l0.5-0.8c0.9-1.4,2.2-1.4,3.1,0l0.4,0.7l0,0l9.3,14.7l14.2-9.9l0,0l0.7-0.5c1.3-0.9,2.6-0.4,2.9,1.2l0.1,0.9l0,0&#10;&#9;&#9;&#9;l2.8,16.6l16.8-3.8l0,0l0.9-0.2c1.6-0.4,2.6,0.6,2.2,2.2l-0.2,0.8l0,0l-3.8,16.9l17.1,3l0,0l0.9,0.1c1.6,0.3,2.1,1.5,1.2,2.9&#10;&#9;&#9;&#9;l-0.5,0.7l0,0l-10.1,14.3l14.8,9.4v0l0.8,0.5C256.3,103.4,256.3,104.8,255,105.7z M229.6,94.8l-7.1-17.2L209.9,65l-17.8-7.4&#10;&#9;&#9;&#9;h-17.8L157,64.7l-12.7,12.7l-7.3,17.4v18.3l6.9,16.8l13.4,13.4l16.2,6.8h19l16.7-6.9l13.3-13.3l6.9-16.5V94.8z"/>
		<path fill-rule="evenodd" clip-rule="evenodd" fill="#FFE75A" d="M183.3,50.4c29.5,0,53.5,23.9,53.5,53.5s-23.9,53.5-53.5,53.5&#10;&#9;&#9;&#9;s-53.5-23.9-53.5-53.5S153.8,50.4,183.3,50.4z"/>
	</g>
	<path fill-rule="evenodd" clip-rule="evenodd" fill="#F0D04F" d="M230.1,130.7c-14.7,25.5-47.4,34.2-73,19.4&#10;&#9;&#9;c-3.8-2.2-7.1-4.7-10.1-7.6c24.6,7.9,52.1-2,65.5-25.2c11.2-19.4,9.4-42.7-2.7-59.9c0.2,0.1,0.4,0.2,0.6,0.3&#10;&#9;&#9;C236,72.5,244.8,105.2,230.1,130.7z"/>

	<g class="groupCloud">
		<title>Parcialmente nublado</title>
		<path fill-rule="evenodd" class="whiteBase" clip-rule="evenodd" fill="#FFFFFF" d="M197.7,224.8L197.7,224.8L51,224.9v0c-28.3-0.6-51-23.8-51-52.4&#10;&#9;&#9;&#9;c0-28.9,23.3-52.4,52-52.4c0.8,0,1.6,0,2.4,0.1c7.2-24.8,29.9-43,56.9-43c32.8,0,59.3,26.7,59.3,59.7c0,2.8-0.2,5.6-0.6,8.3&#10;&#9;&#9;&#9;c7.2-5.2,16-8.3,25.6-8.3c24.1,0,43.7,19.7,43.7,44C239.3,204.5,220.9,223.7,197.7,224.8z"/>
		<path fill-rule="evenodd" class="whiteShadow" clip-rule="evenodd" fill="#E6F4FD" d="M99.8,151.7C98.2,129,74,111,57.2,112.6c-1.1,2.4-2,5-2.7,7.6&#10;&#9;&#9;&#9;C74.8,121.1,92.1,133.8,99.8,151.7z M200.1,218.3H76.7c0,0-16.1,0-19.6,0c-30.8,0-52.9-22.5-52.9-53.2c0-7.8,1.7-15.1,4.6-21.8&#10;&#9;&#9;&#9;c-0.6,1-1.2,1.9-1.8,2.9c-0.1,0.2-0.2,0.3-0.3,0.5c-1.1,2-2.1,4.1-3,6.3c-0.1,0.2-0.2,0.4-0.2,0.6c-0.4,1.1-0.8,2.2-1.1,3.3&#10;&#9;&#9;&#9;c0,0,0,0,0,0c-0.3,1.1-0.6,2.2-0.9,3.3c-0.1,0.3-0.1,0.5-0.2,0.8c-0.2,1.1-0.5,2.3-0.7,3.4c0,0,0,0,0,0.1&#10;&#9;&#9;&#9;c-0.2,1.1-0.3,2.3-0.4,3.4c0,0.3,0,0.6-0.1,0.9c-0.1,1.2-0.1,2.4-0.1,3.6c0,0.9,0,1.8,0.1,2.6c0,0.3,0,0.6,0.1,0.9&#10;&#9;&#9;&#9;c0,0.6,0.1,1.2,0.1,1.7c0,0.3,0.1,0.7,0.1,1c0.1,0.5,0.1,1,0.2,1.5c0.1,0.4,0.1,0.7,0.2,1.1c0.1,0.5,0.2,1,0.3,1.4&#10;&#9;&#9;&#9;c0.1,0.4,0.2,0.7,0.2,1.1c0.1,0.5,0.2,0.9,0.3,1.4c0.1,0.4,0.2,0.7,0.3,1.1c0.1,0.4,0.2,0.9,0.4,1.3c0.1,0.4,0.2,0.7,0.3,1.1&#10;&#9;&#9;&#9;c0.1,0.4,0.3,0.9,0.4,1.3c0.1,0.4,0.3,0.7,0.4,1.1c0.2,0.4,0.3,0.8,0.5,1.3c0.1,0.3,0.3,0.7,0.4,1c0.2,0.4,0.4,0.8,0.5,1.2&#10;&#9;&#9;&#9;c0.2,0.3,0.3,0.7,0.5,1c0.2,0.4,0.4,0.8,0.6,1.2c0.2,0.3,0.4,0.7,0.5,1c0.2,0.4,0.4,0.8,0.7,1.2c0.2,0.3,0.4,0.6,0.6,0.9&#10;&#9;&#9;&#9;c0.2,0.4,0.5,0.8,0.7,1.1c0.2,0.3,0.4,0.6,0.6,0.9c0.3,0.4,0.5,0.7,0.8,1.1c0.2,0.3,0.4,0.6,0.6,0.9c0.3,0.4,0.5,0.7,0.8,1.1&#10;&#9;&#9;&#9;c0.2,0.3,0.5,0.6,0.7,0.8c0.3,0.4,0.6,0.7,0.9,1.1c0.2,0.3,0.5,0.5,0.7,0.8c0.3,0.3,0.6,0.7,0.9,1c0.2,0.3,0.5,0.5,0.7,0.7&#10;&#9;&#9;&#9;c0.3,0.3,0.7,0.7,1,1c0.3,0.2,0.5,0.5,0.8,0.7c0.3,0.3,0.7,0.6,1.1,0.9c0.3,0.2,0.5,0.4,0.8,0.7c0.4,0.3,0.7,0.6,1.1,0.9&#10;&#9;&#9;&#9;c0.3,0.2,0.5,0.4,0.8,0.6c0.4,0.3,0.8,0.6,1.2,0.9c0.3,0.2,0.5,0.4,0.8,0.6c0.4,0.3,0.8,0.5,1.2,0.8c0.3,0.2,0.5,0.3,0.8,0.5&#10;&#9;&#9;&#9;c0.4,0.3,0.9,0.5,1.3,0.8c0.3,0.2,0.5,0.3,0.8,0.5c0.4,0.2,0.9,0.5,1.4,0.7c0.3,0.1,0.5,0.3,0.8,0.4c0.5,0.2,0.9,0.5,1.4,0.7&#10;&#9;&#9;&#9;c0.3,0.1,0.5,0.3,0.8,0.4c0.5,0.2,1,0.4,1.5,0.6c0.3,0.1,0.5,0.2,0.8,0.3c0.5,0.2,1,0.4,1.5,0.6c0.3,0.1,0.5,0.2,0.8,0.3&#10;&#9;&#9;&#9;c0.5,0.2,1.1,0.3,1.6,0.5c0.3,0.1,0.5,0.2,0.8,0.2c0.6,0.2,1.1,0.3,1.7,0.4c0.2,0.1,0.5,0.1,0.7,0.2c0.6,0.1,1.2,0.2,1.8,0.4&#10;&#9;&#9;&#9;c0.2,0,0.5,0.1,0.7,0.1c0.6,0.1,1.3,0.2,1.9,0.3c0.2,0,0.4,0.1,0.6,0.1c0.7,0.1,1.3,0.1,2,0.2c0.2,0,0.4,0,0.6,0&#10;&#9;&#9;&#9;c0.8,0.1,1.7,0.1,2.5,0.1v0h146.7v-0.1c12-0.6,22.7-6,30.3-14.4C219.8,215.6,210.5,218.3,200.1,218.3z"/>
	</g>
</svg>