<svg xmlns="http://www.w3.org/2000/svg" id="night-fair" x="0px" y="0px" viewBox="0 0 256 256" enable-background="new 0 0 256 256">
	<rect opacity="0" fill="#fff" width="256" height="256"/>
	<g>
		<title>Parcialmente nublado</title>
		<path fill="#FFE75A" d="M66.1,40.1c3,6,5.1,12.5,6,19.6c0.3,2.5,0.5,5.1,0.5,7.6c0,29.7-22,55.4-52.1,59.2&#10;&#9;&#9;&#9;c-2.5,0.3-5,0.5-7.5,0.5c-4.4,0-8.7-0.5-12.9-1.4c10,19.7,30.4,32.7,53.1,32.7c2.5,0,5-0.2,7.5-0.5c30.1-3.8,52.1-29.5,52.1-59.2&#10;&#9;&#9;&#9;c0-2.5-0.2-5-0.5-7.6C109,65.2,90,45.4,66.1,40.1"/>
		<path fill-rule="evenodd" clip-rule="evenodd" fill="#F0D04F" d="M105.1,128.4c-16.5,28.5-53,38.2-81.7,21.7&#10;&#9;&#9;&#9;c-4.1-2.4-7.8-5.2-11.2-8.3c29,13.1,63.7,2.4,79.9-25.6c11.8-20.4,10.7-44.7-0.7-63.5C113.4,71,119.8,102.9,105.1,128.4z"/>
		<path fill-rule="evenodd" clip-rule="evenodd" fill="#E4C548" d="M69.9,131.6c3.4,0,6.1,2.7,6.1,6.1s-2.7,6.1-6.1,6.1&#10;&#9;&#9;&#9;c-3.4,0-6.1-2.7-6.1-6.1S66.6,131.6,69.9,131.6z"/>
	</g>
	<g>
		<title>Parcialmente nublado</title>
		<path fill-rule="evenodd" clip-rule="evenodd" class="whiteBase" fill="#FFFFFF" d="M22.4,173c0-23.7,19.1-42.9,42.7-42.9c9.3,0,18,3,25,8.1&#10;&#9;&#9;&#9;c-0.4-2.7-0.6-5.4-0.6-8.1c0-32.2,25.9-58.3,57.9-58.3c26.3,0,48.6,17.7,55.6,42c0.8,0,1.5-0.1,2.3-0.1c28,0,50.8,22.9,50.8,51.1&#10;&#9;&#9;&#9;c0,27.9-22.2,50.5-49.8,51.1v0H63v-0.1C40.4,214.8,22.4,196,22.4,173z"/>
		<path fill-rule="evenodd" clip-rule="evenodd" class="whiteShadow" fill="#E6F4FD" d="M202.9,113.7c-0.7-2.5-1.6-5-2.7-7.4&#10;&#9;&#9;&#9;c-16.5-1.5-40,16-41.6,38.2C166.1,127.1,183,114.6,202.9,113.7z M255.9,161.3c0-0.3,0-0.6-0.1-0.9c-0.1-1.1-0.2-2.2-0.4-3.3&#10;&#9;&#9;&#9;c0,0,0,0,0-0.1c-0.2-1.1-0.4-2.2-0.6-3.4c-0.1-0.3-0.1-0.5-0.2-0.8c-0.3-1.1-0.5-2.2-0.9-3.2c0,0,0,0,0,0&#10;&#9;&#9;&#9;c-0.3-1.1-0.7-2.2-1.1-3.2c-0.1-0.2-0.2-0.4-0.2-0.6c-0.8-2.1-1.8-4.1-2.9-6.1c-0.1-0.2-0.2-0.3-0.3-0.5&#10;&#9;&#9;&#9;c-0.6-1-1.1-1.9-1.8-2.9c2.9,6.5,4.5,13.7,4.5,21.3c0,30-21.5,51.9-51.6,51.9c-3.4,0-19.2,0-19.2,0H60.7&#10;&#9;&#9;&#9;c-10.1,0-19.3-2.7-27.3-7.7c7.4,8.2,17.9,13.5,29.6,14.1v0.1h143.2v0c0.8,0,1.7-0.1,2.5-0.1c0.2,0,0.4,0,0.5,0&#10;&#9;&#9;&#9;c0.7-0.1,1.3-0.1,2-0.2c0.2,0,0.4-0.1,0.6-0.1c0.6-0.1,1.2-0.2,1.8-0.3c0.2,0,0.5-0.1,0.7-0.1c0.6-0.1,1.2-0.2,1.7-0.3&#10;&#9;&#9;&#9;c0.2-0.1,0.5-0.1,0.7-0.2c0.6-0.1,1.1-0.3,1.7-0.4c0.3-0.1,0.5-0.1,0.8-0.2c0.5-0.2,1.1-0.3,1.6-0.5c0.3-0.1,0.5-0.2,0.8-0.3&#10;&#9;&#9;&#9;c0.5-0.2,1-0.4,1.5-0.5c0.3-0.1,0.5-0.2,0.8-0.3c0.5-0.2,1-0.4,1.4-0.6c0.3-0.1,0.5-0.2,0.8-0.4c0.5-0.2,0.9-0.4,1.4-0.7&#10;&#9;&#9;&#9;c0.3-0.1,0.5-0.3,0.8-0.4c0.4-0.2,0.9-0.5,1.3-0.7c0.3-0.1,0.5-0.3,0.8-0.5c0.4-0.2,0.8-0.5,1.3-0.8c0.3-0.2,0.5-0.3,0.8-0.5&#10;&#9;&#9;&#9;c0.4-0.3,0.8-0.5,1.2-0.8c0.3-0.2,0.5-0.4,0.8-0.6c0.4-0.3,0.8-0.6,1.1-0.8c0.3-0.2,0.5-0.4,0.8-0.6c0.4-0.3,0.7-0.6,1.1-0.9&#10;&#9;&#9;&#9;c0.3-0.2,0.5-0.4,0.8-0.6c0.3-0.3,0.7-0.6,1-0.9c0.2-0.2,0.5-0.5,0.7-0.7c0.3-0.3,0.7-0.6,1-1c0.2-0.2,0.5-0.5,0.7-0.7&#10;&#9;&#9;&#9;c0.3-0.3,0.6-0.7,0.9-1c0.2-0.3,0.5-0.5,0.7-0.8c0.3-0.3,0.6-0.7,0.9-1c0.2-0.3,0.4-0.5,0.7-0.8c0.3-0.3,0.5-0.7,0.8-1.1&#10;&#9;&#9;&#9;c0.2-0.3,0.4-0.6,0.6-0.9c0.3-0.4,0.5-0.7,0.8-1.1c0.2-0.3,0.4-0.6,0.6-0.9c0.2-0.4,0.5-0.7,0.7-1.1c0.2-0.3,0.4-0.6,0.6-0.9&#10;&#9;&#9;&#9;c0.2-0.4,0.4-0.8,0.6-1.1c0.2-0.3,0.4-0.6,0.5-1c0.2-0.4,0.4-0.8,0.6-1.2c0.2-0.3,0.3-0.7,0.5-1c0.2-0.4,0.4-0.8,0.5-1.2&#10;&#9;&#9;&#9;c0.1-0.3,0.3-0.7,0.4-1c0.2-0.4,0.3-0.8,0.5-1.2c0.1-0.3,0.3-0.7,0.4-1c0.1-0.4,0.3-0.8,0.4-1.3c0.1-0.4,0.2-0.7,0.3-1.1&#10;&#9;&#9;&#9;c0.1-0.4,0.2-0.9,0.4-1.3c0.1-0.4,0.2-0.7,0.3-1.1c0.1-0.4,0.2-0.9,0.3-1.4c0.1-0.4,0.2-0.7,0.2-1.1c0.1-0.5,0.2-0.9,0.2-1.4&#10;&#9;&#9;&#9;c0.1-0.3,0.1-0.7,0.2-1c0.1-0.5,0.1-1,0.2-1.5c0-0.3,0.1-0.7,0.1-1c0.1-0.6,0.1-1.1,0.1-1.7c0-0.3,0-0.6,0.1-0.8&#10;&#9;&#9;&#9;c0-0.8,0.1-1.7,0.1-2.6C256,163.6,255.9,162.5,255.9,161.3z"/>
	</g>
</svg>