<svg version="1.1" xmlns="http://www.w3.org/2000/svg" xmlns:xlink="http://www.w3.org/1999/xlink" x="0px" y="0px" viewBox="0 0 33 24" enable-background="new 0 0 33 24" xml:space="preserve">
            <path fill-rule="evenodd" clip-rule="evenodd" fill="#FFFFFF" d="M18,14H4.9v0c-1-0.1-1.9-0.9-1.9-2s0.8-1.9,1.9-2v0H18&#10;              c2.8,0,5-2.2,5-5s-2.2-5-5-5h-4.5C12.7,0,12,0.7,12,1.5C12,2.3,12.6,3,13.4,3c0,0,0,0,0,0H18c1.1,0,2,0.9,2,2s-0.9,2-2,2H5&#10;              c-2.8,0-5,2.2-5,5c0,2.7,2.2,4.9,4.9,5v0H18c1.1,0,2,0.9,2,2s-0.9,2-2,2h-7.5C9.7,21,9,21.7,9,22.5c0,0.8,0.7,1.5,1.5,1.5H18&#10;              c2.8,0,5-2.2,5-5S20.8,14,18,14z M28,4h-1.5C25.7,4,25,4.7,25,5.5C25,6.3,25.7,7,26.5,7H28c1.1,0,2,0.9,2,2s-0.9,2-2,2h-4.6&#10;              c0,0,0,0,0,0c-0.8,0-1.4,0.7-1.4,1.5c0,0.8,0.7,1.5,1.5,1.5H28c2.8,0,5-2.2,5-5S30.8,4,28,4z"/>
          </svg>